<?xml version="1.0" encoding="UTF-8"?><svg id="Layer_2" xmlns="http://www.w3.org/2000/svg" viewBox="0 0 552.93 442.71"><g id="Layer_2-2"><g><path d="M265.86,223.68c-7.94-.39-16.95-.52-25.61-3.26-7.36-2.33-12.49-6.57-14.95-14.51-6.7-21.66-12-43.59-14.54-66.13-.28-2.51-1.12-4.34-3.24-5.8-1.48-1.02-2.75-2.42-3.89-3.83-4.78-5.96-4.04-11.06,2.43-14.99,2.87-1.75,4.35-3.27,3.42-7.07-1.18-4.82,2.75-8.07,4.76-11.99,1.83-3.56-1.88-8.57,1.94-12.5,4.45-4.59,9.97-7.14,15.85-9.04,2.66-.86,4.15-1.64,3.59-5.12-.84-5.3,3.06-10.06,9.6-12.33,8.63-3,17.58-3.39,26.61-2.55,1.79,.17,4.07,1.14,5.22-.34,1.39-1.8-.39-3.85-1.35-5.43-4.71-7.8-5.18-16.26-4.46-25.02,1.04-12.67-5.66-20.62-16.86-20.2-7.63,.29-11.07,5.48-8.33,12.55,1.96,5.05,1.71,5.45-4,5.38-5.02-.07-9.99,.12-14.71,2.05-2.01,.82-4.09,1.85-4.25,4.4-.18,2.74,1.78,4.18,3.86,5.33,4.32,2.39,8.97,2.18,13.63,1.42,5.74-.94,11.46-2.05,17.21-2.94,2.12-.33,4.31-.37,6.46-.31,1.64,.05,4,.31,3.9,2.23-.14,2.58-2.64,1.19-4,1.15-7.25-.24-14.17,1.78-21.21,2.93-6.14,1-12.27,1.48-18.19-.97-3.49-1.44-6.69-3.44-6.83-7.75-.14-4.58,3.16-6.74,6.79-8.29,4.49-1.92,9.24-2.73,14.13-2.55,2.76,.1,3.39-.66,2.36-3.52-2.71-7.49,.85-13,8.84-14.29,14.38-2.34,25.48,7.11,23.98,21.67-1.1,10.73,.49,20.39,5.44,29.82,1.33,2.53,2.61,4.29,5.51,5.06,4.33,1.15,8.56,2.74,12.4,5.15,3.19,2.01,6.01,4.55,6.46,8.44,.37,3.28,1.86,4.88,4.86,5.96,6.57,2.38,11.78,6.96,16.37,11.95,2.39,2.6,4.89,4.22,8.08,5.34,7.05,2.47,13.26,6,16.92,13.05,3.47,6.68,3.22,11.82-2.73,16.36-4.48,3.42-6.02,6.84-5.46,12.49,.63,6.41-.82,12.92-2.67,19.17-5.56,18.81-12.21,37.28-17.16,56.28-.94,3.62-3.11,5.76-7.22,6.41-15.92,2.49-31.7,6.08-48.96,6.16Zm48.09-12.82c2.41-.62,2.33-2.13,2.66-3.34,4.76-17.15,9.97-34.16,15.75-51,2.11-6.16,3.32-12.52,3.61-19.04,.21-4.95-.75-5.78-5.32-4.24-11.54,3.88-23.44,6.18-35.42,8.19-14.3,2.4-28.73,3.27-43.29,4.09,2.82,.34,2.56,2.36,2.62,4.22,.17,5.15,.29,10.31,.54,15.46,.8,15.96,1.38,31.92-.07,47.86-.31,3.4,.78,4.4,3.94,4.62,3.49,.24,5.03-.93,5.59-4.52,2.28-14.54,1.64-29.2,2.35-43.81,.32-6.64,1.14-13.25,1.71-19.87,.26-2.99,1.98-4.05,4.77-3.59,3.01,.49,1.71,2.6,1.52,4.28-.46,4.13-.99,8.25-1.37,12.39-1.54,16.4-.05,32.94-2.44,49.31-.25,1.71-2.05,4.62,1.7,5.06,3.02,.35,5.23-.15,6.02-4.06,4.2-20.74,7.39-41.58,7.69-62.78,.04-2.71-.33-5.75,3.69-5.62,3.93,.13,2.45,3.37,2.46,5.33,.19,20.73-3.11,41.08-6.97,61.37-.27,1.43-1.63,3.52,.6,4.33,1.67,.6,3.74,.04,5.17-1.12,.77-.63,1.13-2.03,1.28-3.13,3.05-21.99,12.8-42.81,11.44-65.57-.16-2.66,1.46-3.54,3.7-3.62,2.87-.09,2.56,2.12,2.46,3.88-.37,6.3-.3,12.7-1.42,18.88-2.69,14.89-5.84,29.69-9.07,44.48-.89,4.08,.34,4.52,3.89,3.77,2.32-.49,2.84-1.94,3.28-3.78,5.21-21.84,10.49-43.68,11.4-66.25,.14-3.5,2-5.18,4.82-4.97,2.94,.22,1.59,3.18,1.52,4.86-.72,19.21-4.46,37.96-8.74,56.62-.83,3.63-2.39,7.19-2.07,11.34Zm-60.07-69.97c20.12-.02,36.72-2.28,53.19-5.71,7.82-1.63,15.59-3.45,22.98-6.54,1.25-.52,3.78-.8,1.98-3.36-2.75-3.91-16.24-9.1-20.82-7.71-20.5,6.21-41.63,6.6-62.73,6.47-10.1-.06-20.45-.9-29.59-5.8-4.47-2.4-8.07-1.99-12.17,0-4.1,1.98-4.75,4.73-1.74,8.21,5.19,5.99,12.11,9.23,19.49,11.16,10.67,2.79,21.68,3.22,29.41,3.28Zm8.75-33.95c16.47-.19,32.86,.31,49,4.23,6.01,1.46,13.68-6.94,12.29-12.97-.43-1.87-1.47-2.82-3.38-3.06-3.46-.43-6.9-1.38-10.35-1.39-8.73-.04-17.52-2.69-26.19-.03-19.9,6.12-40.13,6.92-60.6,4.12-4.91-.67-10.25,3.53-10.03,8.41,.12,2.75,.99,4.76,4.65,3.97,14.7-3.17,29.65-3.38,44.61-3.26Zm3.87-18.74c4.49,0,9-.26,13.46,.07,5.56,.41,10.12-1.43,14.02-5.17,1.74-1.66,4.91-3.13,4.12-5.64-.65-2.08-4.04-1.62-6.25-2.07-3.25-.66-6.56-.99-9.84-1.51-1.33-.21-2.57-.36-3.8,.51-10.55,7.48-21.96,6.06-33.49,3.15-1.59-.4-3.06-1.43-4.81-.94-6.6,1.84-12.97,4.21-18.43,8.5-1.57,1.24-3.2,2.84-2.25,5.07,1.12,2.62,3.59,2.03,5.66,1.54,13.7-3.25,27.63-3.65,41.61-3.51Zm-18.16,90.44c0-9.46,.02-18.92,0-28.38-.02-5.32-1.38-6.16-9.19-5.93-4.82,.15-2.74,3.84-2.69,5.91,.52,20.45,3.32,40.72,5.06,61.07,.28,3.31,1.94,4.35,4.69,4.5,3.26,.17,2.49-2.59,2.69-4.3,1.25-10.93,.9-21.89-.56-32.86Zm-26.06-64.08c27.51,7.02,54.98,6.74,82.43-.12-27.48-4.68-54.96-3.92-82.43,.12Zm11.98,94.72c1-2.14,.32-3.94,.14-5.68-1.71-17.16-3.51-34.32-4.39-51.56-.43-8.5-.57-8.33-8.66-10.79-3.84-1.17-4.52-.46-3.96,3.49,2.86,20.26,7.83,40.01,14.07,59.46,.54,1.69,.81,3.57,2.8,5.08Zm113.04-96.78c-.09-6.08-10.5-15.36-16.19-14.5-1.3,.2-1.61,1.02-1.72,2.03-.57,5.14-3.48,8.84-7.39,11.87-1.87,1.45-1.35,2.16,.47,3.07,3.54,1.77,7.09,3.58,10.46,5.64,2.74,1.67,5.37,3.8,8.6,1.67,3.42-2.26,5.96-5.27,5.77-9.77Zm-80.93-54.19l-.02,.2c-1.16,0-2.34-.09-3.49,.02-6.44,.61-12.98,.78-18.9,3.87-2.52,1.32-3.63,3.36-2.77,6.2,.75,2.46,2.73,2.7,4.83,2.39,9.39-1.43,18.82-2.1,28.32-2.01,3.75,.04,4.1-2.67,4.39-5.42,.3-2.9-1-4.32-3.92-4.49-2.81-.16-5.62-.5-8.42-.76Zm29.58,29.76c7.89,.67,14.88,1.34,21.88,1.82,2.32,.16,1.95-1.33,.91-2.51-3.47-3.94-7.87-6.48-12.77-8.22-1.44-.51-2.45-.14-3.41,1.11-1.81,2.34-3.81,4.53-6.61,7.81Zm1.06-16.53c.92,.3,2.05,.74,2.64-.34,.54-.99-.13-1.95-.69-2.73-2.98-4.13-7.39-5.93-12.09-7.18-1.62-.43-4.06-1.57-3.97,1.55,.07,2.41-2.95,6.22,2.36,6.97,3.92,.55,7.83,1.16,11.75,1.74Zm-34.58,21.82c-9.52,.06-19.07-.49-28.51,1.3,9.54,.43,19.08,.7,28.51-1.3Zm-12.15-18.79c6.37,2.38,14.71,1.86,19.65-1.29-6.72-.06-13.13-.44-19.65,1.29Z"/><path d="M102.69,265.61c0,18.46-.02,36.92,0,55.38,0,3.79-1.59,6.14-5.56,6.08-3.7-.05-5.26-2.36-5.31-5.87-.02-1.5-.03-2.99-.03-4.49,0-27.61,0-55.22,0-82.83,0-1.5,.04-3-.02-4.49-.06-1.45,.5-3.48-1.08-4.05-1.63-.59-2.41,1.37-3.32,2.49-8.89,10.99-17.75,22.01-26.62,33.01-1.15,1.42-2.3,2.84-3.49,4.23-4.39,5.14-7.44,5.14-11.67-.03-9.88-12.11-19.72-24.26-29.65-36.33-1.06-1.28-1.79-3.94-3.89-3.04-1.79,.77-1.14,3.27-1.15,5.04-.03,29.11-.02,58.21-.03,87.32,0,1.5,.08,3.01-.08,4.49-.31,2.93-2.13,4.44-4.99,4.57-3.07,.14-5.11-1.32-5.66-4.42-.23-1.3-.14-2.65-.14-3.98,0-35.43,0-70.85,0-106.28,0-3.33-.46-6.99,3.72-8.31,3.92-1.25,6.1,1.45,8.28,4.1,11.63,14.12,23.31,28.2,34.96,42.3,4.36,5.28,4.4,5.28,8.67,.13,11.35-13.71,22.7-27.41,34.06-41.11,.74-.9,1.51-1.78,2.23-2.69,1.93-2.44,4.32-3.7,7.42-2.62,3.11,1.08,3.36,3.71,3.35,6.53-.03,18.3-.02,36.59-.02,54.89Z"/><path d="M389.61,286.29c0-10.81,.04-21.62-.02-32.43-.02-3.36,.19-6.66,4.18-7.43,3.75-.72,6.16,.53,6.91,4.99,.5,2.96,2.14,.35,2.98-.39,9.01-8.02,20.31-9.17,30.71-3.03,2.75,1.62,5.17,3.66,6.94,6.34,1.45,2.21,2.7,2.77,4.32,.13,6.12-9.92,19.99-12.53,32.3-8.61,11.31,3.61,18.43,12.46,19.18,24.74,1.02,16.78,.28,33.58,.38,50.38,.02,3.66-1.56,6.22-5.58,6.13-4.03-.09-5.29-2.72-5.29-6.39,.03-14.8,.02-29.61,0-44.41-.01-9.07-3.4-16.24-11.97-20.15-11.92-5.44-23.32,.83-25.14,13.76-.37,2.62-.43,5.3-.44,7.96-.04,13.97-.06,27.94,0,41.91,.02,3.87-.59,7.22-5.37,7.28-4.73,.06-5.59-3.13-5.58-7.08,.06-14.47,.12-28.94-.02-43.41-.11-11.07-5.04-18.32-14.04-21.26-10.99-3.6-20.72,2.08-22.79,13.41-.53,2.93-.81,5.94-.82,8.91-.08,14.14-.1,28.28,0,42.41,.03,4-.77,7.14-5.53,7.02-4.36-.11-5.35-3.05-5.32-6.86,.08-11.31,.03-22.62,.03-33.93Z"/><path d="M372.6,287.12c0,10.8-.04,21.6,.02,32.41,.02,3.97-.39,7.78-5.43,7.74-4.66-.03-5.42-3.53-5.26-7.41,.05-1.13,.43-2.68-.62-3.27-1.58-.89-2.21,.97-3.11,1.78-16.05,14.6-40.1,14.74-56.84,.29-15.79-13.62-18.99-37.6-7.39-55.27,11.76-17.91,35.59-24.45,54.59-14.98,3.91,1.95,7.35,4.51,10.33,7.7,1.76,1.89,2.84,1.44,3.02-1.11,.07-.99,.03-1.99,.05-2.99,.06-3.57,1.78-5.77,5.42-5.73,3.7,.04,5.2,2.42,5.2,5.93,0,11.63,0,23.27,0,34.9h.02Zm-42.58,31.95c17.62,0,31.79-14.42,31.69-32.24-.1-17.67-14.56-32.42-31.82-32.46-17.55-.05-32.08,14.83-32,32.75,.09,17.66,14.47,31.96,32.13,31.96Z"/><path d="M203.93,286.54c0-10.97,.03-21.94-.02-32.91-.02-3.19,.31-6.22,3.93-7.17,3.3-.86,5.92,.21,7.01,3.78,.62,2.04,1.66,1.54,2.92,.56,10.12-7.98,21.52-8.08,33.15-4.75,14.71,4.2,21.79,14.33,22.29,32.1,.39,13.95,.1,27.93,.08,41.89,0,3.87-1.1,7.18-5.76,7.05-4.44-.13-5.1-3.37-5.09-7.05,.05-13.13,.05-26.27,0-39.4-.06-19.69-14.97-30.68-34.03-25.13-7.94,2.32-12.27,7.72-12.96,15.85-1.23,14.6-.26,29.24-.54,43.86-.03,1.83-.07,3.66,0,5.49,.14,3.68-1.08,6.35-5.19,6.36-4.27,0-5.67-2.76-5.66-6.61,.01-8.31,0-16.62,0-24.94,0-2.99,0-5.98,0-8.98-.05,0-.09,0-.14,0Z"/><path d="M119.85,276.34c0-7.48-.01-14.96,0-22.45,.01-5.48,1.68-7.9,5.48-7.63,5.02,.35,5.35,3.96,5.34,7.91-.05,13.97-.16,27.94,.07,41.9,.19,11.03,5.74,18.83,14.96,21.91,15.78,5.29,30.12-4.93,30.5-22,.26-11.47,.06-22.94,.06-34.42,0-2.33-.02-4.66,0-6.98,.05-5.96,1.64-8.53,5.46-8.32,5.44,.3,5.44,4.36,5.44,8.33,0,13.63,.12,27.27-.03,40.9-.25,23.14-15.26,36.23-38.3,33.61-18.63-2.12-28.85-13.51-28.99-32.33-.05-6.82,0-13.63,0-20.45Z"/><path d="M514.36,286.55c0-11.12,.05-22.24-.03-33.36-.03-3.79,.99-6.79,5.28-6.9,4.32-.11,5.55,2.86,5.55,6.64,0,22.57,0,45.15,0,67.72,0,3.59-1.27,6.37-5.3,6.39-4.27,.03-5.55-2.76-5.52-6.64,.07-11.29,.02-22.57,.02-33.86Z"/><path d="M552.9,287.12c0,10.96-.05,21.91,.03,32.87,.03,4.01-1.05,7.12-5.64,7.06-4.39-.06-5.25-3.25-5.25-6.93,.02-22.25,.02-44.49,0-66.74,0-3.91,.93-7.21,5.62-7.07,4.28,.13,5.29,3.2,5.27,6.95-.05,11.29-.02,22.58-.02,33.87Z"/><path d="M515.43,232.18c-.75-3.78,.15-5.73,4.69-5.65,4,.07,5.02,1.41,4.98,5.21-.04,3.73-.5,5.75-5.02,5.64-3.97-.09-5.51-1.29-4.65-5.2Z"/><path d="M551.84,231.84c.86,3.92-.42,5.55-4.79,5.54-4.09-.01-4.93-1.54-4.93-5.24,0-3.8,.65-5.67,5.09-5.6,4.09,.06,5.41,1.47,4.63,5.31Z"/><path d="M326.1,380.92c-2.38,.41-2.09,2.47-2.45,3.89-1.4,5.53-3.63,10.72-6.42,15.64-6.74,11.89-22.25,13.76-31.56,3.8-1.4-1.5-2.16-2.01-3.97-.5-9.4,7.82-18.8,6.96-27.13-2.25-1.07-1.18-1.55-2.98-3.76-3.55-.41,2.61-.56,5.23-1.28,7.68-.72,2.45-2.27,4.77-5.11,4.78-2.77,0-3-2.74-3.62-4.73-.74-2.37-1.23-4.81-2.02-8.01-3.3,5.21-6.24,10.09-12.13,11.6-5.27,1.36-9.97-1.05-14.1-7.36-3.57,4.84-8.07,7.43-14.2,5.8-1.81-.48-3.83-.99-4.61-2.69-2.21-4.86-3.97-2.29-6.18-.02-5.82,5.98-16.15,7.34-23.51,3.25-3.68-2.05-5.6-5.37-5.58-9.42,.05-9.31,2.42-17.78,10.21-23.84,1.04-.81,2.19-1.53,3.38-2.09,5.75-2.74,11.9-2,14.11,1.64,2.21,3.62,.12,12.34-3.71,15.54-1.79,1.49-3.82,2.52-5.8,.68-2.15-2-.36-3.54,1.09-4.97,2.43-2.41,4.27-5.11,3.92-8.74-.03-.29-.85-.82-1.1-.73-3.28,1.32-4.1,4.59-5.54,7.31-1.95,3.71-2.79,7.79-3.71,11.86-.85,3.75-.65,7.13,2.96,9.16,3.52,1.98,7.15,1.29,10.33-1.02,4.35-3.16,6.67-7.78,8.43-12.68,2.44-6.81,6.61-12.22,12.62-16.25,3.9-2.61,8.29-3.46,12.83-3.39,3.97,.06,5.73,2.31,7.08,6.26,2.5,7.29,.44,14.43,.75,21.61,.08,1.77-.33,4.03,1.79,4.79,2.39,.86,3.57-1.28,4.72-2.84,3.53-4.79,5.44-9.98,5.54-16.16,.21-12.84,1.74-25.58,6.97-37.5,2.94-6.7,7.16-9.59,11.38-8.5,3.75,.97,6.21,6.6,5.43,13.28-.95,8.19-3.24,15.95-8.05,22.82-1.48,2.12-3.31,4.25-2.13,7.74,3.36-3.27,6.12-6.75,9.86-9.16,4.87-3.14,9.08-3.6,11.37-.96,2.53,2.91,1.8,8.27-1.68,12.35-2.54,2.98-5.72,4.92-9.35,6.42-4.22,1.74-4.4,3.56-.96,6.39,1.54,1.26,3.22,2.36,4.93,3.39,9.44,5.66,15.66,2.72,17.76-8.31,.56-2.93,.98-5.95,2.02-8.72,2.81-7.48,8.26-12,16.3-12.84,6.58-.69,10.34,3.69,9.24,10.21-1.03,6.11-4.11,10.41-10.19,12.32-2.28,.72-5.23,.82-4.72,4.53,.47,3.42,1.98,6.07,5.53,6.9,4.46,1.05,8.29-.29,11.09-3.9,3.73-4.8,5.71-10.51,7.55-16.19,.94-2.89,.41-5.69-1.88-8.3-3.81-4.34-2.03-10.29,3.34-12.49,2.28-.94,4.32-.54,5.87,1.31,1.49,1.77,.4,3.43-.69,4.96-1.11,1.56-2.93,2.69-3.37,5.47,4.07-1.95,7.15-5.7,12-3.08,3.49,1.88,5.44,3.81,4.62,8.16-1.17,6.19-2.42,12.41-2.38,18.76,0,1.48-.12,3.2,1.5,3.96,1.89,.88,3.09-.58,4.28-1.73,5.29-5.13,6.39-11.8,6.86-18.7,.09-1.33-.11-2.72,.23-3.97,.8-2.99-.91-7.86,4.73-7.6,6.5,.3,9.58,4.08,8.7,9.95-.79,5.26-1.58,10.52-2.17,15.81-.19,1.66-1.13,4.25,1.1,4.78,1.75,.41,2.31-2.13,2.8-3.61,1.87-5.68,3.58-11.42,5.3-17.15,1.02-3.38,2.27-6.64,5.11-8.96,1.72-1.41,3.66-2.51,5.95-1.49,2.35,1.04,3.39,3.04,3.56,5.57,.21,3.06-.71,5.92-1.38,8.83-1.08,4.71-2.26,9.42-1.33,14.29,.34,1.79,.75,3.72,2.9,4.27,2.09,.53,3.5-.78,4.71-2.17,2.9-3.31,4.47-7.36,6.1-11.37,.48-1.18,.75-2.56,3.19-3.43-.17,5.04-2.21,8.85-4.33,12.6-2.69,4.77-6.04,8.85-11.88,9.75-2.61,.4-2.99,2.14-3.2,4.28-.26,2.66,1.71,2.83,3.43,3.37,2.84,.89,5.88,1.44,7.77,4.11,.68,.97,1.3,2.17,.26,3.16-1.04,1-1.8-.11-2.44-.79-1.48-1.57-3.48-1.76-5.39-2.34-3.66-1.11-5.58,.1-6.53,3.79-1.04,4.05-2.86,7.81-5.44,11.14-4.07,5.24-9.52,7.12-15.92,6.09-8.09-1.29-11.43-9.77-6.49-16.36,3.44-4.59,8.12-7.46,13.75-8.31,3.98-.6,5.44-2.63,5.13-6.41-.3-3.62,1.35-7.17,.4-11.83-2.6,4.44-4.63,9.01-9.91,8.7-5.38-.31-6.99-4.93-8.93-9.53-1.79,2.18-3.3,4.09-4.89,5.92-2.99,3.45-6.58,5.84-11.35,4.75-4.77-1.09-6.07-5.29-7.29-9.31-1.58-5.21-.91-10.55-.72-15.86,.04-1.08,.7-2.23-.26-3.28Zm31.54,57.57c1.36,.05,2.61-.24,3.78-.97,3.12-1.93,7.06-10.98,6.38-14.53-.32-1.69-1.35-2.19-2.85-1.95-5.07,.82-9.63,2.67-12.5,7.19-3.13,4.93-.43,10.11,5.19,10.26Zm-152.91-39.94c-.03,1.63,0,2.86,1.24,3.45,1.48,.71,2.57-.16,3.44-1.21,2.72-3.27,4.01-7.2,5.16-11.2,.83-2.89,1.72-5.72,4.37-7.59,1.52-1.07,4.26-1.9,2.57-4.39-1.64-2.41-4-.98-5.66,.34-6.76,5.36-9.55,12.9-11.12,20.61Z"/></g></g></svg>