<?xml version="1.0" encoding="UTF-8"?><svg id="Layer_2" xmlns="http://www.w3.org/2000/svg" viewBox="0 0 554.45 444.72"><g id="Layer_2-2"><g><path d="M271.05,32.42c0,4.19-1.97,4.74-5.24,4.33-5.88-.73-11.55,1.04-17.23,2.17-5.08,1-10.14,1.74-15.34,1.51-3.93-.17-7.57-1.23-10.81-3.4-5.8-3.88-5.87-10.51-.09-14.37,4.54-3.04,9.75-4.26,15.15-4.33,3.13-.04,4.48-.39,3.44-4.22-1.66-6.12,1.26-10.7,7.28-12.83,13.46-4.77,27.09,4.32,27.65,18.54,.14,3.48,.11,7.01-.27,10.47-.94,8.6,2.64,15.91,6.17,23.29,.81,1.68,2.33,2.23,3.87,2.89,3.97,1.7,7.99,3.31,11.86,5.24,3.67,1.82,6.84,4.52,7.91,8.56,.99,3.77,3.43,5.41,6.48,7.47,8.82,5.95,18.11,10.8,27.77,15.22,7.9,3.62,11.57,11.35,13.83,19.31,1.62,5.69-1.08,10.5-5.82,13.81-3.28,2.29-4.05,4.97-3.78,8.92,.73,10.64-2.28,20.76-5.71,30.67-5.06,14.63-9.35,29.48-13.46,44.39-1.51,5.49-4.1,8.73-10.27,9.72-13.78,2.2-27.46,5.28-41.43,5.92-10.97,.5-21.96,.01-32.54-3.52-7.74-2.58-12.71-7.42-15.16-15.68-6.38-21.56-12.08-43.23-14.61-65.63-.24-2.14-1.32-3.66-2.78-5.11-1.76-1.75-3.63-3.49-5-5.53-3.52-5.24-2.9-9.72,2.1-13.52,2.49-1.89,3.85-3.87,3.81-7.02-.02-1.62,.28-3.43,1.03-4.84,2.77-5.22,3.46-10.76,4.23-16.57,.9-6.74,6.57-10.59,12.74-12.8,3.57-1.28,5.68-2.61,6.37-6.91,1.02-6.29,6.19-9.58,11.78-11.84,8.85-3.58,18.11-3.97,27.49-3.34,1.4,.09,3.17,1.29,4.14-.3,.86-1.41-.56-2.8-1.18-4.11-2.45-5.09-4.86-10.18-4.37-16.53Z"/><path d="M323.55,382.92c-2.38,.41-2.09,2.47-2.45,3.89-1.4,5.53-3.63,10.72-6.42,15.64-6.74,11.89-22.25,13.76-31.56,3.8-1.4-1.5-2.16-2.01-3.97-.5-9.4,7.82-18.8,6.96-27.13-2.25-1.07-1.18-1.55-2.98-3.76-3.55-.41,2.61-.56,5.23-1.28,7.68-.72,2.45-2.27,4.77-5.11,4.78-2.77,0-3-2.74-3.62-4.73-.74-2.37-1.23-4.81-2.02-8.01-3.3,5.21-6.24,10.09-12.13,11.6-5.27,1.36-9.97-1.05-14.1-7.36-3.57,4.84-8.07,7.43-14.2,5.8-1.81-.48-3.83-.99-4.61-2.69-2.21-4.86-3.97-2.29-6.18-.02-5.82,5.98-16.15,7.34-23.51,3.25-3.68-2.05-5.6-5.37-5.58-9.42,.05-9.31,2.42-17.78,10.21-23.84,1.04-.81,2.19-1.53,3.38-2.09,5.75-2.74,11.9-2,14.11,1.64,2.21,3.62,.12,12.34-3.71,15.54-1.79,1.49-3.82,2.52-5.8,.68-2.15-2-.36-3.54,1.09-4.97,2.43-2.41,4.27-5.11,3.92-8.74-.03-.29-.85-.82-1.1-.73-3.28,1.32-4.1,4.59-5.54,7.31-1.95,3.71-2.79,7.79-3.71,11.86-.85,3.75-.65,7.13,2.96,9.16,3.52,1.98,7.15,1.29,10.33-1.02,4.35-3.16,6.67-7.78,8.43-12.68,2.44-6.81,6.61-12.22,12.62-16.25,3.9-2.61,8.29-3.46,12.83-3.39,3.97,.06,5.73,2.31,7.08,6.26,2.5,7.29,.44,14.43,.75,21.61,.08,1.77-.33,4.03,1.79,4.79,2.39,.86,3.57-1.28,4.72-2.84,3.53-4.79,5.44-9.98,5.54-16.16,.21-12.84,1.74-25.58,6.97-37.5,2.94-6.7,7.16-9.59,11.38-8.5,3.75,.97,6.21,6.6,5.43,13.28-.95,8.19-3.24,15.95-8.05,22.82-1.48,2.12-3.31,4.25-2.13,7.74,3.36-3.27,6.12-6.75,9.86-9.16,4.87-3.14,9.08-3.6,11.37-.96,2.53,2.91,1.8,8.27-1.68,12.35-2.54,2.98-5.72,4.92-9.35,6.42-4.22,1.74-4.4,3.56-.96,6.39,1.54,1.26,3.22,2.36,4.93,3.39,9.44,5.66,15.66,2.72,17.76-8.31,.56-2.93,.98-5.95,2.02-8.72,2.81-7.48,8.26-12,16.3-12.84,6.58-.69,10.34,3.69,9.24,10.21-1.03,6.11-4.11,10.41-10.19,12.32-2.28,.72-5.23,.82-4.72,4.53,.47,3.42,1.98,6.07,5.53,6.9,4.46,1.05,8.29-.29,11.09-3.9,3.73-4.8,5.71-10.51,7.55-16.19,.94-2.89,.41-5.69-1.88-8.3-3.81-4.34-2.03-10.29,3.34-12.49,2.28-.94,4.32-.54,5.87,1.31,1.49,1.77,.4,3.43-.69,4.96-1.11,1.56-2.93,2.69-3.37,5.47,4.07-1.95,7.15-5.7,12-3.08,3.49,1.88,5.44,3.81,4.62,8.16-1.17,6.19-2.42,12.41-2.38,18.76,0,1.48-.12,3.2,1.5,3.96,1.89,.88,3.09-.58,4.28-1.73,5.29-5.13,6.39-11.8,6.86-18.7,.09-1.33-.11-2.72,.23-3.97,.8-2.99-.91-7.86,4.73-7.6,6.5,.3,9.58,4.08,8.7,9.95-.79,5.26-1.58,10.52-2.17,15.81-.19,1.66-1.13,4.25,1.1,4.78,1.75,.41,2.31-2.13,2.8-3.61,1.87-5.68,3.58-11.42,5.3-17.15,1.02-3.38,2.27-6.64,5.11-8.96,1.72-1.41,3.66-2.51,5.95-1.49,2.35,1.04,3.39,3.04,3.56,5.57,.21,3.06-.71,5.92-1.38,8.83-1.08,4.71-2.26,9.42-1.33,14.29,.34,1.79,.75,3.72,2.9,4.27,2.09,.53,3.5-.78,4.71-2.17,2.9-3.31,4.47-7.36,6.1-11.37,.48-1.18,.75-2.56,3.19-3.43-.17,5.04-2.21,8.85-4.33,12.6-2.69,4.77-6.04,8.85-11.88,9.75-2.61,.4-2.99,2.14-3.2,4.28-.26,2.66,1.71,2.83,3.43,3.37,2.84,.89,5.88,1.44,7.77,4.11,.68,.97,1.3,2.17,.26,3.16-1.04,1-1.8-.11-2.44-.79-1.48-1.57-3.48-1.76-5.39-2.34-3.66-1.11-5.58,.1-6.53,3.79-1.04,4.05-2.86,7.81-5.44,11.14-4.07,5.24-9.52,7.12-15.92,6.09-8.09-1.29-11.43-9.77-6.49-16.36,3.44-4.59,8.12-7.46,13.75-8.31,3.98-.6,5.44-2.63,5.13-6.41-.3-3.62,1.35-7.17,.4-11.83-2.6,4.44-4.63,9.01-9.91,8.7-5.38-.31-6.99-4.93-8.93-9.53-1.79,2.18-3.3,4.09-4.89,5.92-2.99,3.45-6.58,5.84-11.35,4.75-4.77-1.09-6.07-5.29-7.29-9.31-1.58-5.21-.91-10.55-.72-15.86,.04-1.08,.7-2.23-.26-3.28Zm31.54,57.57c1.36,.05,2.61-.24,3.78-.97,3.12-1.93,7.06-10.98,6.38-14.53-.32-1.69-1.35-2.19-2.85-1.95-5.07,.82-9.63,2.67-12.5,7.19-3.13,4.93-.43,10.11,5.19,10.26Zm-152.91-39.94c-.03,1.63,0,2.86,1.24,3.45,1.48,.71,2.57-.16,3.44-1.21,2.72-3.27,4.01-7.2,5.16-11.2,.83-2.89,1.72-5.72,4.37-7.59,1.52-1.07,4.26-1.9,2.57-4.39-1.64-2.41-4-.98-5.66,.34-6.76,5.36-9.55,12.9-11.12,20.61Z"/><path d="M90.68,227.48c-6.74,8.38-13.04,16.27-19.4,24.12-4.29,5.29-8.53,10.64-13.06,15.73-4.18,4.71-8.01,4.48-12.02-.43-9.68-11.84-19.31-23.72-28.99-35.57-.91-1.12-1.51-2.62-3.28-3.01-1.52,1.69-.83,3.78-.83,5.65-.05,27.78-.03,55.55-.04,83.33,0,1.83,.07,3.68-.16,5.48-.47,3.75-2.36,6.22-6.48,6.13-4.11-.09-5.85-2.67-6.3-6.38-.18-1.48-.11-2.99-.11-4.49,0-34.43,0-68.86,0-103.29,0-1,0-2,.02-2.99,.06-3.41,1.07-6.32,4.66-7.43,3.31-1.02,5.73,.53,7.8,3.04,10.89,13.22,21.76,26.45,32.75,39.58,8.34,9.96,6.54,9.29,14.17,.12,10.63-12.78,21.2-25.62,31.77-38.46,2.43-2.95,5-5.6,9.26-4.2,4.18,1.38,4.42,5.06,4.42,8.61,.04,35.76,.03,71.52,0,107.28,0,1.48-.17,3.01-.59,4.42-.8,2.67-2.71,4.07-5.54,4.19-3.03,.13-5.09-1.21-6.23-4-.85-2.07-.65-4.26-.65-6.41-.01-28.11,0-56.22-.04-84.33,0-1.92,.53-3.95-1.12-6.72Z"/><path d="M389.55,287.77c0-10.48-.01-20.96,0-31.45,0-3.53-.18-7.42,3.81-8.98,3.76-1.47,7.18-.79,9.13,3.44,.91,1.97,1.88,.3,2.69-.29,12.32-8.93,26.87-7.61,37.01,3.45,1.41,1.54,2.37,2.69,4.24,.45,9.71-11.67,22.11-11.78,35-7.25,12.95,4.55,17.43,15.41,17.83,27.98,.49,15.29,.2,30.61,.11,45.92-.03,5.24-2.33,7.83-6.37,7.88-4.09,.05-6.43-2.33-6.51-7.72-.2-14.97-.18-29.95-.12-44.92,.02-6.18-1.75-11.47-6.67-15.44-5.96-4.81-12.57-5.99-19.6-2.87-6.24,2.77-8.48,8.41-8.6,14.66-.3,15.13-.15,30.28-.22,45.42,0,1.99,0,4.02-.41,5.95-.71,3.39-2.98,5.08-6.49,4.91-3.52-.17-5.49-2.14-6.01-5.53-.22-1.47-.14-2.99-.14-4.48-.02-14.31,.15-28.62-.08-42.92-.22-13.44-11.62-22.24-23.96-18.95-5.73,1.53-9.09,5.25-10.58,10.82-.95,3.56-1.21,7.2-1.2,10.88,.03,13.98,.04,27.95,0,41.93-.02,5.72-2.03,8.25-6.31,8.27-4.26,.02-6.45-2.57-6.5-8.22-.1-10.98-.03-21.96-.04-32.94Z"/><path d="M362.08,257.6c.13-2.64,.19-3.95,.26-5.26,.17-3.37,2.08-5.18,5.31-5.5,3.48-.35,5.78,1.34,6.64,4.69,.37,1.42,.3,2.97,.3,4.46,.02,21.28,.02,42.56,0,63.84,0,1.65,.04,3.4-.47,4.92-.98,2.95-3.12,4.76-6.4,4.44-3.22-.32-5.12-2.17-5.36-5.51-.11-1.45-.21-2.9-.39-5.36-11.86,10.8-24.94,15.55-40.23,12.07-10.22-2.33-18.84-7.39-25.32-15.74-13.41-17.29-12.48-40.09,2.69-56.58,8.25-8.97,18.84-13.17,31.14-13.44,12.14-.27,22.25,4.25,31.83,12.97Zm-.56,30.96c.13-18.05-13.62-32.46-30.93-32.39-16.28,.06-30.66,14.62-30.82,31.2-.17,17.37,13.82,32.04,30.71,32.19,17.01,.16,30.92-13.73,31.04-31Z"/><path d="M204.47,287.21c0-10.98,.01-21.96,0-32.94,0-2.94,.17-5.89,3.43-7.06,3.04-1.09,6.05-.71,8.03,2.17,1.56,2.27,2.83,1.24,4.54,.28,13.94-7.82,27.73-6.67,41.19,1.15,7.59,4.4,11.58,11.58,12.72,19.95,2.29,16.87,1.09,33.88,.99,50.83-.03,4.95-3.11,7.7-7.06,7.28-4.7-.49-5.78-3.83-5.78-7.86,0-13.64-.39-27.3,.07-40.92,.72-21.1-21.39-28.54-36.78-20.98-4.7,2.31-7.4,6.53-8.06,11.91-1.85,14.92-.48,29.91-.89,44.86-.06,2.16,0,4.33-.04,6.49-.07,3.89-1.78,6.48-5.92,6.5-4.33,.02-6.3-2.63-6.33-6.71-.08-9.81-.04-19.63-.05-29.45,0-1.83,0-3.66,0-5.49h-.04Z"/><path d="M188.98,278.22c-.47,7.36,.56,16.49-.67,25.62-2.81,20.72-19.29,28.63-35.98,27.5-21.77-1.47-32.43-13.87-32.44-35.68,0-12.8,0-25.61,0-38.41,0-1.33-.02-2.66,.05-3.99,.21-4.15,2.29-6.58,6.57-6.48,4.22,.1,5.69,2.8,5.69,6.66,0,13.97-.07,27.94,.05,41.91,.1,12.1,5.78,20.26,15.88,23.29,12.77,3.83,24.89-3.45,27.56-16.46,1.05-5.11,.83-10.26,.84-15.41,.02-10.81,0-21.62,.03-32.43,0-4.07,1.18-7.34,6-7.55,4.03-.18,6.33,2.54,6.4,7.71,.09,7.32,.02,14.63,.02,23.71Z"/><path d="M554.44,287.84c0,11.12,.03,22.24-.01,33.35-.02,5.38-2.04,7.92-6.17,7.68-4.63-.27-6.14-3.33-6.14-7.48-.01-22.4-.05-44.8,.03-67.2,.02-4.99,2.56-7.65,6.69-7.41,4.95,.28,5.64,3.69,5.63,7.71-.05,11.12-.02,22.24-.02,33.35Z"/><path d="M514.91,287.58c0-11.14-.04-22.29,.02-33.43,.03-5.21,1.91-7.51,5.94-7.38,4.72,.16,6.3,3.31,6.31,7.38,.07,22.45,.07,44.9,0,67.35-.01,4.07-1.62,7.22-6.32,7.39-3.98,.15-5.9-2.22-5.93-7.39-.06-11.31-.02-22.62-.02-33.93Z"/><path d="M553.35,233c.79,4.47-.94,6.19-5.63,6.25-5.07,.07-5.6-2.49-5.64-6.52-.05-4.12,1.15-5.99,5.65-6.02,4.73-.03,6.39,1.83,5.63,6.29Z"/><path d="M515.97,232.74c-.69-4.18,.88-5.97,5.33-6.02,4.67-.05,5.97,1.96,5.97,6.25,0,4.29-1.3,6.23-5.96,6.25-4.98,.02-5.95-2.38-5.33-6.49Z"/></g></g></svg>